<svg width="12" height="10" viewBox="0 0 12 10" fill="none" xmlns="http://www.w3.org/2000/svg">
<g id="Layer">
<path id="Vector" fill-rule="evenodd" clip-rule="evenodd" d="M5.50008 0.594881C5.53462 0.48536 5.60317 0.389701 5.69579 0.321798C5.7884 0.253895 5.90024 0.217285 6.01508 0.217285C6.12992 0.217285 6.24177 0.253895 6.33438 0.321798C6.42699 0.389701 6.49555 0.48536 6.53008 0.594881L7.46008 3.45488H10.4601C10.579 3.45038 10.6962 3.48495 10.7936 3.5533C10.8911 3.62165 10.9635 3.72002 10.9997 3.83339C11.036 3.94676 11.0342 4.06888 10.9945 4.18111C10.9549 4.29333 10.8795 4.38949 10.7801 4.45488L8.34508 6.21988L9.27508 9.08488C9.31186 9.19401 9.31279 9.31205 9.27773 9.42174C9.24267 9.53144 9.17345 9.62706 9.0802 9.69462C8.98694 9.76219 8.87452 9.79818 8.75936 9.79733C8.6442 9.79647 8.53233 9.75883 8.44008 9.68988L6.00008 7.90488L3.56508 9.67488C3.47284 9.74383 3.36097 9.78147 3.2458 9.78233C3.13064 9.78318 3.01823 9.74719 2.92497 9.67962C2.83171 9.61205 2.7625 9.51644 2.72744 9.40674C2.69238 9.29705 2.6933 9.17901 2.73008 9.06988L3.66008 6.20488L1.22508 4.43988C1.12562 4.37449 1.05031 4.27833 1.01064 4.16611C0.970978 4.05388 0.969144 3.93176 1.00542 3.81839C1.0417 3.70502 1.11409 3.60665 1.21154 3.5383C1.30899 3.46995 1.42614 3.43538 1.54508 3.43988H4.54508L5.50008 0.594881Z" fill="#FBAD39"/>
</g>
</svg>
