<svg width="16" height="17" viewBox="0 0 16 17" fill="none" xmlns="http://www.w3.org/2000/svg">
<g id="Plus" clip-path="url(#clip0_7532_36078)">
<g id="Iconly/Bold/Plus">
<g id="Plus_2">
<path id="Vector" d="M11.728 0.49996C14.448 0.49996 16 2.03598 16 4.764V12.2361C16 14.9481 14.456 16.5001 11.736 16.5001H4.26392C1.53589 16.5001 -0.00012207 14.9481 -0.00012207 12.2361V4.764C-0.00012207 2.03598 1.53589 0.49996 4.26392 0.49996H11.728ZM7.99196 4.908C7.62396 4.908 7.32795 5.20401 7.32795 5.57201V7.82803H5.06393C4.88793 7.82803 4.71993 7.90003 4.59192 8.02004C4.47192 8.14804 4.39992 8.31524 4.39992 8.49204C4.39992 8.86004 4.69593 9.15605 5.06393 9.16405H7.32795V11.4281C7.32795 11.7961 7.62396 12.0921 7.99196 12.0921C8.35996 12.0921 8.65597 11.7961 8.65597 11.4281V9.16405H10.928C11.296 9.15605 11.592 8.86004 11.592 8.49204C11.592 8.12404 11.296 7.82803 10.928 7.82803H8.65597V5.57201C8.65597 5.20401 8.35996 4.908 7.99196 4.908Z" fill="#3D5278"/>
</g>
</g>
</g>
<defs>
<clipPath id="clip0_7532_36078">
<rect width="16" height="16" fill="white" transform="translate(0 0.5)"/>
</clipPath>
</defs>
</svg>
